<svg width="7" height="12" viewBox="0 0 7 12" fill="none" xmlns="http://www.w3.org/2000/svg">
<path d="M1.67695 0.691666L6.59154 5.59167C6.64987 5.65 6.69109 5.71319 6.7152 5.78125C6.7397 5.84931 6.75195 5.92222 6.75195 6C6.75195 6.07778 6.7397 6.15069 6.7152 6.21875C6.69109 6.28681 6.64987 6.35 6.59154 6.40833L1.67695 11.3229C1.54084 11.459 1.3707 11.5271 1.16654 11.5271C0.96237 11.5271 0.78737 11.4542 0.641537 11.3083C0.495704 11.1625 0.422787 10.9924 0.422787 10.7979C0.422787 10.6035 0.495704 10.4333 0.641537 10.2875L4.92904 6L0.641537 1.7125C0.505426 1.57639 0.43737 1.40878 0.43737 1.20967C0.43737 1.01017 0.510287 0.837499 0.65612 0.691666C0.801953 0.545832 0.972092 0.472916 1.16654 0.472916C1.36098 0.472916 1.53112 0.545832 1.67695 0.691666Z" fill="#053354"/>
</svg>
